<svg width="133" height="87" viewBox="0 0 133 87" fill="none" xmlns="http://www.w3.org/2000/svg">
<path d="M6.944 23.6H21.824V31.04H9.92L9.734 31.412L19.654 49.516C21.6793 53.1533 22.692 55.9227 22.692 57.824C22.692 61.9987 21.3073 65.0573 18.538 67H2.108V59.808H14.942L15.128 59.436L3.968 39.41C2.356 36.5167 1.55 34.1607 1.55 32.342C1.55 28.0433 3.348 25.1293 6.944 23.6ZM45.2484 67H31.7324C27.599 63.156 25.5324 57.9067 25.5324 51.252C25.5324 47.904 25.987 44.99 26.8964 42.51C27.847 40.03 29.335 37.6327 31.3604 35.318H45.8684C48.0177 37.798 49.485 40.216 50.2704 42.572C51.0557 44.8867 51.4484 47.78 51.4484 51.252C51.4484 57.9067 49.3817 63.156 45.2484 67ZM36.1344 60.49H40.8464C42.3344 57.5967 43.0784 54.3107 43.0784 50.632C43.0784 46.9533 42.3137 44.0187 40.7844 41.828H36.1344C34.6464 43.936 33.9024 46.9327 33.9024 50.818C33.9024 54.662 34.6464 57.886 36.1344 60.49ZM63.5747 50.88C63.5747 52.616 63.8434 54.3933 64.3807 56.212C64.918 57.9893 65.662 59.4153 66.6127 60.49H75.9127V67H62.3347C57.4574 63.1147 55.0187 57.7413 55.0187 50.88C55.0187 44.0187 57.6227 38.8313 62.8307 35.318H75.9127V41.828H66.6127C64.5874 43.936 63.5747 46.9533 63.5747 50.88ZM80.0449 67V35.318H88.2289V67H80.0449ZM80.0449 23.6H88.2289V31.97H80.0449V23.6ZM108.489 52.678H101.855C100.987 53.7527 100.553 55.096 100.553 56.708C100.553 58.32 101.008 59.5807 101.917 60.49H108.489V52.678ZM95.1589 35.318H110.535C113.015 36.806 114.648 38.5213 115.433 40.464C116.218 42.3653 116.611 44.9693 116.611 48.276V57.576C116.611 61.0067 116.694 64.148 116.859 67H109.791L108.675 64.768C107.063 66.256 104.79 67 101.855 67H97.9489C94.4355 64.6853 92.6789 61.358 92.6789 57.018C92.6789 52.6367 94.4769 49.1853 98.0729 46.664H103.901C105.513 46.664 107.022 47.16 108.427 48.152V45.052C108.427 43.44 107.724 42.3653 106.319 41.828H95.1589V35.318ZM130.127 23.6V67H121.943V23.6H130.127Z" fill="black"/>
<path d="M92.064 81V70.78H93.716L94.78 74.084C94.8827 74.3827 94.976 74.6813 95.06 74.98C95.144 75.2693 95.2047 75.4933 95.242 75.652C95.2887 75.4933 95.3493 75.2693 95.424 74.98C95.4987 74.6813 95.5827 74.378 95.676 74.07L96.684 70.78H98.336V81H97.104V77.29C97.104 76.8793 97.118 76.4127 97.146 75.89C97.174 75.3673 97.2113 74.8353 97.258 74.294C97.3047 73.7433 97.3513 73.2207 97.398 72.726C97.454 72.222 97.5007 71.7833 97.538 71.41L95.886 76.52H94.556L92.89 71.41C92.9367 71.774 92.9833 72.1987 93.03 72.684C93.0767 73.16 93.1187 73.6687 93.156 74.21C93.1933 74.742 93.226 75.274 93.254 75.806C93.282 76.338 93.296 76.8327 93.296 77.29V81H92.064ZM103.595 81.14C102.988 81.14 102.456 81.0187 101.999 80.776C101.551 80.5333 101.201 80.1927 100.949 79.754C100.706 79.306 100.585 78.788 100.585 78.2V76.1C100.585 75.5027 100.706 74.9847 100.949 74.546C101.201 74.1073 101.551 73.7667 101.999 73.524C102.456 73.2813 102.988 73.16 103.595 73.16C104.201 73.16 104.729 73.2813 105.177 73.524C105.634 73.7667 105.984 74.1073 106.227 74.546C106.479 74.9847 106.605 75.5027 106.605 76.1V77.458H101.817V78.2C101.817 78.8067 101.971 79.2733 102.279 79.6C102.587 79.9173 103.025 80.076 103.595 80.076C104.08 80.076 104.472 79.992 104.771 79.824C105.069 79.6467 105.251 79.3853 105.317 79.04H106.577C106.493 79.684 106.175 80.1973 105.625 80.58C105.083 80.9533 104.407 81.14 103.595 81.14ZM105.373 76.618V76.1C105.373 75.4933 105.219 75.0267 104.911 74.7C104.612 74.3733 104.173 74.21 103.595 74.21C103.025 74.21 102.587 74.3733 102.279 74.7C101.971 75.0267 101.817 75.4933 101.817 76.1V76.506H105.471L105.373 76.618ZM111.541 81.14C110.776 81.14 110.155 80.8833 109.679 80.37C109.212 79.8567 108.979 79.1613 108.979 78.284V76.03C108.979 75.1433 109.212 74.4433 109.679 73.93C110.146 73.4167 110.766 73.16 111.541 73.16C112.176 73.16 112.684 73.3327 113.067 73.678C113.45 74.0233 113.641 74.4853 113.641 75.064L113.389 74.77H113.669L113.641 73.02V70.78H114.901V81H113.641V79.53H113.389L113.641 79.236C113.641 79.824 113.45 80.2907 113.067 80.636C112.684 80.972 112.176 81.14 111.541 81.14ZM111.961 80.048C112.484 80.048 112.894 79.8847 113.193 79.558C113.492 79.2313 113.641 78.7787 113.641 78.2V76.1C113.641 75.5213 113.492 75.0687 113.193 74.742C112.894 74.4153 112.484 74.252 111.961 74.252C111.429 74.252 111.009 74.4107 110.701 74.728C110.393 75.0453 110.239 75.5027 110.239 76.1V78.2C110.239 78.7973 110.393 79.2547 110.701 79.572C111.009 79.8893 111.429 80.048 111.961 80.048ZM117.374 81V79.852H120.104V74.448H117.724V73.3H121.364V79.852H123.954V81H117.374ZM120.594 71.914C120.286 71.914 120.043 71.8347 119.866 71.676C119.688 71.5173 119.6 71.3027 119.6 71.032C119.6 70.752 119.688 70.5327 119.866 70.374C120.043 70.206 120.286 70.122 120.594 70.122C120.902 70.122 121.144 70.206 121.322 70.374C121.499 70.5327 121.588 70.752 121.588 71.032C121.588 71.3027 121.499 71.5173 121.322 71.676C121.144 71.8347 120.902 71.914 120.594 71.914ZM128.106 81.14C127.294 81.14 126.655 80.9347 126.188 80.524C125.721 80.104 125.488 79.5393 125.488 78.83C125.488 78.1113 125.721 77.5467 126.188 77.136C126.655 76.7253 127.285 76.52 128.078 76.52H130.458V75.75C130.458 75.274 130.313 74.91 130.024 74.658C129.744 74.3967 129.343 74.266 128.82 74.266C128.363 74.266 127.98 74.364 127.672 74.56C127.364 74.7467 127.187 75.0033 127.14 75.33H125.88C125.964 74.6673 126.277 74.14 126.818 73.748C127.359 73.356 128.036 73.16 128.848 73.16C129.735 73.16 130.435 73.3887 130.948 73.846C131.461 74.3033 131.718 74.924 131.718 75.708V81H130.486V79.53H130.276L130.486 79.32C130.486 79.88 130.267 80.3233 129.828 80.65C129.399 80.9767 128.825 81.14 128.106 81.14ZM128.414 80.146C129.011 80.146 129.501 79.9967 129.884 79.698C130.267 79.3993 130.458 79.0167 130.458 78.55V77.458H128.106C127.686 77.458 127.355 77.5747 127.112 77.808C126.869 78.0413 126.748 78.3587 126.748 78.76C126.748 79.1893 126.893 79.53 127.182 79.782C127.481 80.0247 127.891 80.146 128.414 80.146Z" fill="black"/>
</svg>
